<svg width="18" height="11" viewBox="0 0 18 11" fill="none" xmlns="http://www.w3.org/2000/svg">
<path fill-rule="evenodd" clip-rule="evenodd" d="M11.7929 0.292891C12.1834 -0.0976332 12.8166 -0.0976333 13.2071 0.292891L17.7071 4.79289C18.0976 5.18341 18.0976 5.81658 17.7071 6.2071L13.2071 10.7071C12.8166 11.0976 12.1834 11.0976 11.7929 10.7071C11.4024 10.3166 11.4024 9.68342 11.7929 9.29289L14.5858 6.5L1 6.5C0.447716 6.5 1.05822e-06 6.05228 9.61651e-07 5.5C8.65086e-07 4.94772 0.447716 4.5 1 4.5L14.5858 4.5L11.7929 1.7071C11.4024 1.31658 11.4024 0.683416 11.7929 0.292891Z" fill="#424551"/>
</svg>
